#N canvas 473 289 993 589 10;
#X obj 49 20 loadbang;
#X obj 50 185 soundfiler;
#N canvas 0 22 450 300 (subpatch) 0;
#X array buf1_L 4.6876e+06 float 2;
#X coords 0 1 4.6876e+06 -1 145 100 1 0 0;
#X restore 622 28 graph;
#N canvas 0 22 450 300 (subpatch) 0;
#X array buf2_L 1.93524e+06 float 2;
#X coords 0 1 1.93524e+06 -1 146 90 1 0 0;
#X restore 622 146 graph;
#X obj 131 269 bng 16 250 50 0 empty empty empty 0 -8 0 10 #fcfcfc #000000 #000000;
#X obj 144 524 dac~;
#N canvas 0 22 450 300 (subpatch) 0;
#X array buf1_R 4.6876e+06 float 2;
#X coords 0 1 4.6876e+06 -1 152 106 1 0 0;
#X restore 772 27 graph;
#N canvas 0 22 450 300 (subpatch) 0;
#X array buf2_R 1.93524e+06 float 2;
#X coords 0 1 1.93524e+06 -1 154 89 1 0 0;
#X restore 772 147 graph;
#X msg 50 141 read -resize xenodrome.wav buf1_L buf1_R;
#X obj 33 355 tabplay~ buf1_L;
#X obj 133 355 tabplay~ buf1_R;
#X msg 69 117 read -resize ms20.wav buf2_L buf2_R;
#X obj 422 269 bng 16 250 50 0 empty empty empty 0 -8 0 10 #fcfcfc #000000 #000000;
#X obj 511 392 spigot;
#X obj 543 353 tgl 16 0 empty empty empty 0 -8 0 10 #fcfcfc #000000 #000000 0 1;
#X text 562 353 loop;
#X obj 324 355 tabplay~ buf2_L;
#X obj 424 355 tabplay~ buf2_R;
#X msg 178 267 stop;
#X msg 473 267 stop;
#X obj 32 381 throw~ _L;
#X obj 132 381 throw~ _R;
#X obj 323 381 throw~ _L;
#X obj 423 381 throw~ _R;
#X obj 94 467 catch~ _L;
#X obj 435 478 bng 16 250 50 0 empty empty empty 0 -8 0 10 #fcfcfc #000000 #000000;
#X obj 435 537 throw~ _R;
#X obj 373 537 throw~ _L;
#X obj 436 511 tabplay~ buf3;
#X obj 131 224 loadbang;
#X obj 421 204 r ms20_play;
#X obj 474 243 r ms20_stop;
#X obj 434 452 r klk;
#X obj 368 45 tgl 16 0 empty empty empty 0 -8 0 10 #fcfcfc #000000 #000000 0 1;
#X obj 368 101 s klk;
#X obj 368 72 metro 500;
#N canvas 0 22 450 300 (subpatch) 0;
#X array buf3 18 float 4;
#X coords 0 1 17 -1 146 90 1 0 0;
#X restore 623 253 graph;
#X msg 85 95 read -resize klk.wav buf3;
#X obj 467 44 bng 16 250 50 0 empty empty empty 0 -8 0 10 #fcfcfc #000000 #000000;
#X obj 467 70 s ms20_play;
#X obj 166 467 catch~ _R;
#X obj 807 322 netreceive -u -b;
#X obj 807 347 oscparse;
#X obj 807 372 list trim;
#X obj 679 527 s klk;
#X obj 885 500 bng 16 250 50 0 empty empty empty 0 -8 0 10 #fcfcfc #000000 #000000;
#X obj 809 499 bng 16 250 50 0 empty empty empty 0 -8 0 10 #fcfcfc #000000 #000000;
#X obj 809 526 s ms20_play;
#X obj 885 523 s ms20_stop;
#X obj 808 477 route start;
#X obj 807 429 route retina;
#X msg 807 297 listen 7002;
#X obj 807 270 loadbang;
#X obj 679 505 bng 16 250 50 0 empty empty empty 0 -8 0 10 #fcfcfc #000000 #000000;
#X obj 681 479 route step;
#X obj 678 430 route sequence;
#X msg 84 51 \; pd dsp 1;
#X obj 885 476 route end;
#X connect 0 0 8 0;
#X connect 0 0 11 0;
#X connect 0 0 37 0;
#X connect 0 0 56 0;
#X connect 4 0 9 0;
#X connect 4 0 10 0;
#X connect 8 0 1 0;
#X connect 9 0 20 0;
#X connect 10 0 21 0;
#X connect 10 1 4 0;
#X connect 11 0 1 0;
#X connect 12 0 16 0;
#X connect 12 0 17 0;
#X connect 13 0 12 0;
#X connect 14 0 13 1;
#X connect 16 0 22 0;
#X connect 17 0 23 0;
#X connect 17 1 13 0;
#X connect 18 0 9 0;
#X connect 18 0 10 0;
#X connect 19 0 16 0;
#X connect 19 0 17 0;
#X connect 24 0 5 0;
#X connect 25 0 28 0;
#X connect 28 0 26 0;
#X connect 28 0 27 0;
#X connect 29 0 4 0;
#X connect 30 0 12 0;
#X connect 31 0 19 0;
#X connect 32 0 25 0;
#X connect 33 0 35 0;
#X connect 35 0 34 0;
#X connect 37 0 1 0;
#X connect 38 0 39 0;
#X connect 40 0 5 1;
#X connect 41 0 42 0;
#X connect 42 0 43 0;
#X connect 43 0 50 0;
#X connect 43 0 55 0;
#X connect 45 0 48 0;
#X connect 46 0 47 0;
#X connect 49 0 46 0;
#X connect 50 0 49 0;
#X connect 50 0 57 0;
#X connect 51 0 41 0;
#X connect 52 0 51 0;
#X connect 53 0 44 0;
#X connect 54 0 53 0;
#X connect 55 0 54 0;
#X connect 57 0 45 0;
